<?xml version="1.0" standalone="no"?>
<svg xmlns:xlink="http://www.w3.org/1999/xlink" id="wave" style="transform:rotate(180deg); transition: 0.3s" viewBox="0 0 1440 140" version="1.1" xmlns="http://www.w3.org/2000/svg"><defs><linearGradient id="sw-gradient-0" x1="0" x2="0" y1="1" y2="0"><stop stop-color="rgba(215, 223, 255, 1)" offset="0%"/><stop stop-color="rgba(215, 223, 255, 1)" offset="100%"/></linearGradient></defs><path style="transform:translate(0, 0px); opacity:1" fill="url(#sw-gradient-0)" d="M0,56L240,65.3C480,75,960,93,1440,88.7C1920,84,2400,56,2880,39.7C3360,23,3840,19,4320,16.3C4800,14,5280,14,5760,14C6240,14,6720,14,7200,18.7C7680,23,8160,33,8640,42C9120,51,9600,61,10080,53.7C10560,47,11040,23,11520,25.7C12000,28,12480,56,12960,65.3C13440,75,13920,65,14400,60.7C14880,56,15360,56,15840,58.3C16320,61,16800,65,17280,63C17760,61,18240,51,18720,51.3C19200,51,19680,61,20160,67.7C20640,75,21120,79,21600,70C22080,61,22560,37,23040,35C23520,33,24000,51,24480,70C24960,89,25440,107,25920,105C26400,103,26880,79,27360,60.7C27840,42,28320,28,28800,18.7C29280,9,29760,5,30240,11.7C30720,19,31200,37,31680,42C32160,47,32640,37,33120,35C33600,33,34080,37,34320,39.7L34560,42L34560,140L34320,140C34080,140,33600,140,33120,140C32640,140,32160,140,31680,140C31200,140,30720,140,30240,140C29760,140,29280,140,28800,140C28320,140,27840,140,27360,140C26880,140,26400,140,25920,140C25440,140,24960,140,24480,140C24000,140,23520,140,23040,140C22560,140,22080,140,21600,140C21120,140,20640,140,20160,140C19680,140,19200,140,18720,140C18240,140,17760,140,17280,140C16800,140,16320,140,15840,140C15360,140,14880,140,14400,140C13920,140,13440,140,12960,140C12480,140,12000,140,11520,140C11040,140,10560,140,10080,140C9600,140,9120,140,8640,140C8160,140,7680,140,7200,140C6720,140,6240,140,5760,140C5280,140,4800,140,4320,140C3840,140,3360,140,2880,140C2400,140,1920,140,1440,140C960,140,480,140,240,140L0,140Z"/></svg>