<?xml version="1.0" standalone="no"?>
<svg xmlns:xlink="http://www.w3.org/1999/xlink" id="wave" style="transform:rotate(180deg); transition: 0.3s" viewBox="0 0 1440 100" version="1.1" xmlns="http://www.w3.org/2000/svg"><defs><linearGradient id="sw-gradient-0" x1="0" x2="0" y1="1" y2="0"><stop stop-color="rgba(228, 231, 246, 1)" offset="0%"/><stop stop-color="rgba(228, 231, 246, 1)" offset="100%"/></linearGradient></defs><path style="transform:translate(0, 0px); opacity:1" fill="url(#sw-gradient-0)" d="M0,40L20,46.7C40,53,80,67,120,63.3C160,60,200,40,240,28.3C280,17,320,13,360,11.7C400,10,440,10,480,10C520,10,560,10,600,13.3C640,17,680,23,720,30C760,37,800,43,840,38.3C880,33,920,17,960,18.3C1000,20,1040,40,1080,46.7C1120,53,1160,47,1200,43.3C1240,40,1280,40,1320,41.7C1360,43,1400,47,1440,45C1480,43,1520,37,1560,36.7C1600,37,1640,43,1680,48.3C1720,53,1760,57,1800,50C1840,43,1880,27,1920,25C1960,23,2000,37,2040,50C2080,63,2120,77,2160,75C2200,73,2240,57,2280,43.3C2320,30,2360,20,2400,13.3C2440,7,2480,3,2520,8.3C2560,13,2600,27,2640,30C2680,33,2720,27,2760,25C2800,23,2840,27,2860,28.3L2880,30L2880,100L2860,100C2840,100,2800,100,2760,100C2720,100,2680,100,2640,100C2600,100,2560,100,2520,100C2480,100,2440,100,2400,100C2360,100,2320,100,2280,100C2240,100,2200,100,2160,100C2120,100,2080,100,2040,100C2000,100,1960,100,1920,100C1880,100,1840,100,1800,100C1760,100,1720,100,1680,100C1640,100,1600,100,1560,100C1520,100,1480,100,1440,100C1400,100,1360,100,1320,100C1280,100,1240,100,1200,100C1160,100,1120,100,1080,100C1040,100,1000,100,960,100C920,100,880,100,840,100C800,100,760,100,720,100C680,100,640,100,600,100C560,100,520,100,480,100C440,100,400,100,360,100C320,100,280,100,240,100C200,100,160,100,120,100C80,100,40,100,20,100L0,100Z"/></svg>